<svg width="48" height="48" viewBox="0 0 48 48" fill="none" xmlns="http://www.w3.org/2000/svg">
<g clip-path="url(#clip0_714_5213)">
<path d="M43.0667 11.2511C44.8272 9.56985 45.2998 6.94385 44.236 4.75447C43.1721 2.56508 40.8156 1.31379 38.4059 1.65942C35.9963 2.00465 34.0858 3.86754 33.68 6.26743C33.2738 8.6677 34.4654 11.0551 36.627 12.174C35.7292 12.9258 35.2086 14.0357 35.2043 15.2069V21.6056H32.8048V15.2069C32.8005 12.374 30.6826 9.98969 27.8699 9.65148C29.5266 8.07212 30.055 5.64334 29.2044 3.5184C28.3538 1.39307 26.2956 0 24.0066 0C21.7177 0 19.6595 1.39307 18.8089 3.5184C17.9583 5.64334 18.4867 8.07212 20.1434 9.65148C17.3307 9.98969 15.2128 12.374 15.2085 15.2069V21.6056H12.809V15.2069C12.8047 14.0357 12.2841 12.9258 11.3863 12.174C13.5479 11.0551 14.7395 8.6677 14.3333 6.26743C13.9271 3.86754 12.017 2.00465 9.60735 1.65942C7.1977 1.31379 4.84117 2.56508 3.77733 4.75447C2.71349 6.94385 3.18605 9.56985 4.94661 11.2511C2.13393 11.5894 0.0160147 13.9736 0.0117188 16.8066V28.8041C0.0148431 30.9638 1.2595 32.9294 3.21104 33.855V48H4.8107V34.3388C5.07315 34.3763 10.4095 34.4029 10.4095 34.4029C10.8512 34.4029 11.2094 34.761 11.2094 35.2027V48H17.608V32.8032H23.2068V46.4004H20.0075V48H28.0058V46.4004H24.8065V32.8032H30.4053V48H36.8039V35.2027C36.8039 34.761 37.1621 34.4029 37.6038 34.4029C37.6038 34.4029 42.9401 34.3763 43.2026 34.3388V48H44.8022V33.855C46.7538 32.9294 47.9984 30.9638 48.0016 28.8041V16.8066C47.9973 13.9736 45.8794 11.5894 43.0667 11.2511ZM35.2043 7.20863C35.2043 5.00012 36.9949 3.20948 39.2034 3.20948C41.4119 3.20948 43.2026 5.00012 43.2026 7.20863C43.2026 9.41715 41.4119 11.2078 39.2034 11.2078C36.9957 11.2051 35.207 9.41637 35.2043 7.20863ZM25.7118 11.2078L24.0066 13.7674L22.3015 11.2078H25.7118ZM20.0075 5.60897C20.0075 3.40045 21.7981 1.60982 24.0066 1.60982C26.2152 1.60982 28.0058 3.40045 28.0058 5.60897C28.0058 7.81749 26.2152 9.60813 24.0066 9.60813C21.7989 9.60539 20.0102 7.81671 20.0075 5.60897ZM16.8082 15.2069C16.8148 13.1593 18.3699 11.4491 20.4074 11.2484L24.0066 16.6465L27.6059 11.2461C29.6445 11.4468 31.1997 13.1586 31.2051 15.2069V21.6056H28.0058V26.4046H20.0075V21.6056H16.8082V15.2069ZM4.8107 7.20863C4.8107 5.00012 6.60134 3.20948 8.80986 3.20948C11.0184 3.20948 12.809 5.00012 12.809 7.20863C12.809 9.41715 11.0184 11.2078 8.80986 11.2078C6.60212 11.2051 4.81344 9.41637 4.8107 7.20863ZM16.0083 46.4004H12.809V35.2027C12.809 33.8776 11.7346 32.8032 10.4095 32.8032H5.61053C3.4028 32.8005 1.61411 31.0118 1.61138 28.8041V16.8066C1.61411 14.5989 3.4028 12.8102 5.61053 12.8075H8.80986C10.135 12.8075 11.2094 13.8818 11.2094 15.2069V23.2053H18.4078V26.4046H8.80986C8.36815 26.4046 8.01003 26.0465 8.01003 25.6048V16.0068H6.41037V25.6048C6.41037 26.9299 7.48475 28.0042 8.80986 28.0042H12.0092C14.2169 28.007 16.0056 29.7957 16.0083 32.0034V46.4004ZM17.5439 31.2036C17.369 29.9874 16.798 28.863 15.9197 28.0042H32.0936C31.2153 28.863 30.6443 29.9874 30.4693 31.2036H17.5439ZM46.4019 28.8041C46.3992 31.0118 44.6105 32.8005 42.4028 32.8032H37.6038C36.2787 32.8032 35.2043 33.8776 35.2043 35.2027V46.4004H32.005V32.0034C32.0077 29.7957 33.7964 28.007 36.0041 28.0042H39.2034C40.5285 28.0042 41.6029 26.9299 41.6029 25.6048V16.0068H40.0033V25.6048C40.0033 26.0465 39.6451 26.4046 39.2034 26.4046H29.6055V23.2053H36.8039V15.2069C36.8039 13.8818 37.8783 12.8075 39.2034 12.8075H42.4028C44.6105 12.8102 46.3992 14.5989 46.4019 16.8066V28.8041Z" fill="#E67A00"/>
</g>
<defs>
<clipPath id="clip0_714_5213">
<rect width="48" height="48" fill="white"/>
</clipPath>
</defs>
</svg>
