<svg width="48" height="48" viewBox="0 0 48 48" fill="none" xmlns="http://www.w3.org/2000/svg">
<g clip-path="url(#clip0_714_5179)">
<path d="M0.788066 23.9894H0.816065C1.24746 23.9897 1.60135 23.6478 1.61605 23.2166C2.04884 10.8533 12.4221 1.18168 24.7854 1.61437C29.5409 1.78086 34.1198 3.45732 37.8584 6.40096H33.6009C33.1591 6.40096 32.8009 6.75915 32.8009 7.20094C32.8009 7.64273 33.1591 8.00092 33.6009 8.00092H40.0008H40.012C40.0746 7.99582 40.1363 7.98352 40.196 7.96412C40.2369 7.95822 40.2772 7.94942 40.3168 7.93772C40.3392 7.92812 40.356 7.90812 40.3776 7.89612C40.4494 7.86102 40.5153 7.81482 40.5728 7.75933L40.5808 7.75373C40.6011 7.72593 40.6196 7.69683 40.636 7.66653C40.6779 7.61553 40.7132 7.55933 40.7407 7.49933C40.7627 7.43553 40.7762 7.36913 40.7808 7.30174C40.7899 7.26874 40.7966 7.23504 40.8008 7.20094V0.801084C40.8008 0.359295 40.4426 0.00110288 40.0008 0.00110288C39.559 0.00110288 39.2008 0.359295 39.2008 0.801084V5.43458C28.9509 -2.96343 13.8337 -1.46226 5.43566 8.7877C2.10244 12.856 0.198279 17.9068 0.0160833 23.163C0.0012836 23.6043 0.346776 23.9742 0.788066 23.9894Z" fill="#E67A00"/>
<path d="M7.26099 38.8875C6.96739 38.5561 6.46081 38.5255 6.12941 38.8191C5.79802 39.1127 5.76742 39.6193 6.06101 39.9506C6.6117 40.5686 7.19349 41.1582 7.80417 41.717C8.13627 42.0085 8.64166 41.9755 8.93315 41.6435C9.21634 41.3208 9.19434 40.8322 8.88335 40.5362C8.31476 40.0147 7.77328 39.4645 7.26099 38.8875Z" fill="#E67A00"/>
<path d="M16.8103 45.2217C16.0789 44.9741 15.361 44.6886 14.6592 44.3665C14.2633 44.1704 13.7833 44.3324 13.5872 44.7283C13.3911 45.1242 13.5531 45.6042 13.949 45.8003C13.9626 45.807 13.9764 45.8134 13.9904 45.8193C14.7428 46.1656 15.513 46.4721 16.2975 46.7376C16.7161 46.8792 17.1703 46.6546 17.3119 46.236C17.4536 45.8175 17.229 45.3633 16.8103 45.2217Z" fill="#E67A00"/>
<path d="M12.6056 43.2914V43.2906C11.9407 42.8967 11.2962 42.4695 10.6745 42.0106C10.3276 41.7369 9.82457 41.7963 9.55088 42.1432C9.27718 42.4901 9.33658 42.9931 9.68347 43.2668C9.69647 43.277 9.70967 43.2869 9.72327 43.2963C10.3883 43.7886 11.0779 44.2464 11.7896 44.6682C12.1698 44.8935 12.6607 44.768 12.886 44.3878C13.1114 44.0075 12.9858 43.5167 12.6056 43.2914Z" fill="#E67A00"/>
<path d="M5.8159 37.0819C5.36491 36.4549 4.94632 35.8052 4.56153 35.1355C4.34063 34.7522 3.85084 34.6206 3.46755 34.8415C3.08426 35.0624 2.95266 35.5522 3.17356 35.9355C3.58575 36.6516 4.03434 37.3461 4.51753 38.0163C4.78282 38.3695 5.28431 38.4408 5.6376 38.1755C5.98079 37.9179 6.05949 37.4353 5.8159 37.0819Z" fill="#E67A00"/>
<path d="M3.58343 33.4009C3.58343 33.2894 3.56003 33.1791 3.51493 33.0772L3.51333 33.0716C3.20024 32.3664 2.92385 31.6454 2.68535 30.9116C2.56935 30.4853 2.12966 30.2337 1.70337 30.3498C1.27708 30.4658 1.02549 30.9055 1.14159 31.3318C1.14839 31.3566 1.15628 31.3811 1.16538 31.4052C1.42068 32.1933 1.71657 32.9677 2.05176 33.7252C2.18006 34.0148 2.46706 34.2013 2.78375 34.2011C3.22554 34.2009 3.58353 33.8427 3.58343 33.4009Z" fill="#E67A00"/>
<path d="M1.4706 29.6213C1.4707 29.6213 1.4709 29.6212 1.471 29.6212C1.90269 29.5292 2.17828 29.105 2.08699 28.6732C1.92759 27.9175 1.80689 27.1541 1.72539 26.386C1.6788 25.9464 1.28461 25.6278 0.845015 25.6744C0.405425 25.721 0.0868324 26.1152 0.133431 26.5548C0.221029 27.3775 0.350726 28.1951 0.522222 29.0044C0.61382 29.4367 1.03841 29.7128 1.4706 29.6213Z" fill="#E67A00"/>
<path d="M46.7197 28.8046C46.7194 28.8045 46.7191 28.8045 46.7188 28.8044C46.29 28.6982 45.8563 28.9596 45.75 29.3884C45.5646 30.1384 45.3406 30.8783 45.0788 31.6051C44.929 32.0209 45.1446 32.4793 45.5604 32.6291C45.9762 32.7789 46.4346 32.5633 46.5844 32.1475C46.8651 31.369 47.1054 30.5765 47.3044 29.7732C47.4104 29.3443 47.1486 28.9107 46.7197 28.8046Z" fill="#E67A00"/>
<path d="M21.3207 46.24C20.5539 46.1487 19.7924 46.0179 19.0391 45.848C18.6081 45.7506 18.1798 46.021 18.0824 46.452C17.985 46.883 18.2554 47.3113 18.6863 47.4087C19.4937 47.5907 20.31 47.7309 21.1319 47.8287C21.1638 47.8326 21.1958 47.8344 21.2279 47.8343C21.6697 47.8334 22.0271 47.4744 22.0262 47.0327C22.0254 46.6281 21.7226 46.2878 21.3207 46.24Z" fill="#E67A00"/>
<path d="M45.2454 33.3676C44.8477 33.1756 44.3697 33.3421 44.1773 33.7396C43.841 34.435 43.4688 35.1125 43.0621 35.7692C42.8359 36.1487 42.9603 36.6397 43.3399 36.8658C43.7102 37.0865 44.1889 36.974 44.4221 36.6115C44.8575 35.9076 45.2562 35.1816 45.6164 34.4364C45.8091 34.0388 45.6429 33.5603 45.2454 33.3676Z" fill="#E67A00"/>
<path d="M42.8821 37.5281C42.5364 37.2531 42.0331 37.3105 41.7581 37.6564C41.7533 37.6624 41.7486 37.6685 41.744 37.6746V37.673C41.272 38.2853 40.7687 38.8727 40.236 39.433C39.9314 39.7533 39.9441 40.26 40.2644 40.5645C40.5847 40.8691 41.0914 40.8564 41.396 40.5361C41.9656 39.9359 42.5045 39.3071 43.0103 38.6522C43.2853 38.3064 43.2279 37.8031 42.8821 37.5281Z" fill="#E67A00"/>
<path d="M47.2122 24.0382C46.7776 24.016 46.4072 24.3503 46.3851 24.7849C46.3847 24.793 46.3844 24.8012 46.3842 24.8093C46.3571 25.5813 46.29 26.3514 46.1834 27.1165C46.1231 27.5536 46.4281 27.9569 46.865 28.0181C46.9021 28.0235 46.9395 28.0262 46.977 28.0261C47.3756 28.0255 47.7131 27.7314 47.7681 27.3365C47.882 26.517 47.9538 25.6922 47.9833 24.8653C47.9986 24.424 47.6535 24.0538 47.2122 24.0382Z" fill="#E67A00"/>
<path d="M38.557 41.0241V41.0265C37.9682 41.5291 37.3541 42.0012 36.717 42.4409C36.3527 42.6927 36.2616 43.1921 36.5134 43.5564C36.7652 43.9207 37.2647 44.0118 37.629 43.76C38.3103 43.2869 38.9671 42.7797 39.597 42.2401C39.9328 41.9529 39.9722 41.4479 39.685 41.1121C39.3979 40.7763 38.8928 40.7369 38.557 41.0241Z" fill="#E67A00"/>
<path d="M30.4868 45.4465C29.7476 45.6693 28.9973 45.8535 28.2389 45.9985C27.805 46.082 27.5209 46.5012 27.6044 46.9351C27.6767 47.3112 28.0055 47.5833 28.3885 47.584C28.4392 47.5842 28.4898 47.5796 28.5397 47.5704C29.3527 47.415 30.1569 47.2172 30.9492 46.9776C31.3688 46.8393 31.5969 46.3871 31.4586 45.9675C31.3252 45.5627 30.8978 45.3336 30.4868 45.4465Z" fill="#E67A00"/>
<path d="M25.9891 46.3131C25.9744 46.3139 25.9598 46.3152 25.9452 46.3168L25.9492 46.32C25.3092 46.3744 24.654 46.4 24.0012 46.4H23.6356C23.1993 46.4062 22.8427 46.7498 22.8204 47.1856C22.8124 47.6274 23.164 47.992 23.6057 48C23.6058 48 23.6059 48 23.606 48H24.0012C24.7004 48 25.4012 47.9688 26.0812 47.9104C26.5223 47.885 26.8593 47.5068 26.8338 47.0657C26.8083 46.6246 26.4301 46.2876 25.9891 46.3131Z" fill="#E67A00"/>
<path d="M34.7514 43.6554H34.7522C34.075 44.0263 33.3792 44.3622 32.6675 44.6618C32.2581 44.8279 32.0608 45.2944 32.2268 45.7038C32.3928 46.1132 32.8594 46.3105 33.2688 46.1445C33.2748 46.1421 33.2807 46.1396 33.2866 46.137C34.0492 45.8161 34.7946 45.4562 35.5201 45.0586C35.9076 44.8463 36.0496 44.3601 35.8373 43.9726C35.6252 43.5851 35.1389 43.4431 34.7514 43.6554Z" fill="#E67A00"/>
<path d="M23.9988 7.20093C14.7206 7.20093 7.19922 14.7224 7.19922 24.0005C7.19922 33.2787 14.7206 40.8002 23.9988 40.8002C33.277 40.8002 40.7984 33.2787 40.7984 24.0005C40.7879 14.7268 33.2726 7.21153 23.9988 7.20093ZM36.7985 24.8005H39.1577C38.7421 32.552 32.5503 38.7438 24.7988 39.1594V36.8002C24.7988 36.3585 24.4406 36.0003 23.9988 36.0003C23.557 36.0003 23.1989 36.3585 23.1989 36.8002V39.1594C15.4473 38.7438 9.25557 32.552 8.83998 24.8005H11.1991C11.6409 24.8005 11.9991 24.4423 11.9991 24.0005C11.9991 23.5588 11.6409 23.2006 11.1991 23.2006H8.83998C9.25557 15.449 15.4473 9.25728 23.1989 8.84169V11.2008C23.1989 11.6426 23.557 12.0008 23.9988 12.0008C24.4406 12.0008 24.7988 11.6426 24.7988 11.2008V8.84169C32.5503 9.25728 38.7421 15.449 39.1577 23.2006H36.7985C36.3567 23.2006 35.9986 23.5588 35.9986 24.0005C35.9986 24.4423 36.3567 24.8005 36.7985 24.8005Z" fill="#E67A00"/>
<path d="M24.8006 21.7478V14.4008C24.8006 13.959 24.4424 13.6008 24.0006 13.6008C23.5588 13.6008 23.2006 13.959 23.2006 14.4008V21.7478C22.5231 21.9898 21.9899 22.5231 21.7479 23.2006H17.6008C17.159 23.2006 16.8008 23.5588 16.8008 24.0006C16.8008 24.4424 17.159 24.8006 17.6008 24.8006H21.7479C22.1863 26.0481 23.553 26.7041 24.8006 26.2657C26.0482 25.8273 26.7042 24.4606 26.2658 23.213C26.025 22.5276 25.486 21.9887 24.8006 21.7478ZM24.0006 24.8006C23.5588 24.8006 23.2006 24.4424 23.2006 24.0006C23.2006 23.5588 23.5588 23.2006 24.0006 23.2006C24.4424 23.2006 24.8006 23.5588 24.8006 24.0006C24.8006 24.4424 24.4425 24.8006 24.0006 24.8006Z" fill="#E67A00"/>
</g>
<defs>
<clipPath id="clip0_714_5179">
<rect width="48" height="48" fill="white"/>
</clipPath>
</defs>
</svg>
