<svg width="48" height="48" viewBox="0 0 48 48" fill="none" xmlns="http://www.w3.org/2000/svg">
<path d="M46.8335 21.0353L31.9835 6.18534C31.8402 6.04984 31.6505 5.97434 31.4532 5.97434C31.256 5.97434 31.0663 6.04984 30.923 6.18534L26.6802 10.4281C26.5396 10.5687 26.4607 10.7595 26.4607 10.9583C26.4607 11.1572 26.5396 11.3479 26.6802 11.4886L27.0867 11.8951L22.6857 12.9451L20.9232 11.2403L21.4415 10.7228C21.5821 10.5822 21.6611 10.3915 21.6611 10.1926C21.6611 9.99372 21.5821 9.80299 21.4415 9.66234L17.1965 5.41734C17.0559 5.27674 16.8651 5.19775 16.6662 5.19775C16.4674 5.19775 16.2766 5.27674 16.136 5.41734L1.286 20.2673C1.14539 20.408 1.06641 20.5987 1.06641 20.7976C1.06641 20.9965 1.14539 21.1872 1.286 21.3278L5.531 25.5728C5.67164 25.7134 5.86237 25.7924 6.06125 25.7924C6.26012 25.7924 6.45085 25.7134 6.5915 25.5728L7.13 25.0343L10.742 28.4963L10.5515 28.6868C10.1348 29.1069 9.85168 29.6407 9.73762 30.2212C9.62356 30.8018 9.6837 31.4031 9.91047 31.9495C10.1372 32.4959 10.5205 32.9631 11.0121 33.2923C11.5037 33.6215 12.0816 33.798 12.6732 33.7996C12.7407 33.7996 12.8067 33.7846 12.8735 33.7801C12.869 33.8483 12.8532 33.9143 12.8532 33.9826C12.8532 34.7782 13.1693 35.5413 13.7319 36.1039C14.2945 36.6665 15.0576 36.9826 15.8532 36.9826C15.92 36.9826 15.986 36.9683 16.0527 36.9638C16.0482 37.0313 16.0332 37.0973 16.0332 37.1656C16.0275 37.624 16.1281 38.0774 16.327 38.4904C16.526 38.9033 16.8179 39.2646 17.1799 39.5458C17.5419 39.827 17.9641 40.0205 18.4135 40.1111C18.8628 40.2017 19.327 40.187 19.7697 40.0681C19.8258 40.8178 20.1641 41.5183 20.7164 42.0284C21.2687 42.5384 21.994 42.8199 22.7457 42.8161C23.5127 42.8135 24.2498 42.5185 24.8067 41.9911L25.058 42.2296C25.3356 42.5093 25.666 42.7311 26.0299 42.8822C26.3939 43.0334 26.7842 43.1108 27.1782 43.1101C27.9722 43.1079 28.7333 42.7926 29.2962 42.2326C29.7991 41.7313 30.1047 41.0657 30.1572 40.3576C30.6584 40.4927 31.1866 40.4921 31.6874 40.3557C32.1883 40.2192 32.6438 39.952 33.0072 39.5813C33.5103 39.0801 33.8162 38.4145 33.869 37.7063C34.1082 37.7695 34.3543 37.803 34.6017 37.8061C35.3534 37.8073 36.0779 37.5246 36.6302 37.0147C37.1825 36.5048 37.522 35.8052 37.5807 35.0558C37.82 35.1206 38.0664 35.1551 38.3142 35.1586C38.9091 35.1579 39.4904 34.9805 39.9843 34.6491C40.4783 34.3176 40.8627 33.8469 41.0888 33.2967C41.315 32.7465 41.3727 32.1416 41.2546 31.5585C41.1365 30.9755 40.8479 30.4407 40.4255 30.0218L38.5715 28.2368L41 25.8083L41.525 26.3371C41.5947 26.4068 41.6774 26.4621 41.7684 26.4999C41.8595 26.5376 41.9571 26.5571 42.0556 26.5571C42.1542 26.5571 42.2518 26.5376 42.3428 26.4999C42.4339 26.4621 42.5166 26.4068 42.5862 26.3371L46.8282 22.0943C46.9691 21.9545 47.0487 21.7644 47.0497 21.5659C47.0507 21.3674 46.9729 21.1766 46.8335 21.0353ZM6.05825 23.9821L2.87375 20.7976L16.6632 7.00809L19.8477 10.1926L6.05825 23.9821ZM11.618 31.8668C11.4774 31.7281 11.3658 31.5629 11.2894 31.3807C11.2131 31.1986 11.1736 31.0031 11.1732 30.8056C11.1729 30.6081 11.2117 30.4125 11.2874 30.2301C11.3631 30.0477 11.4742 29.8821 11.6142 29.7428L15.8585 25.5001C16.1389 25.2201 16.5188 25.0625 16.9151 25.0617C17.3113 25.0608 17.6919 25.2168 17.9735 25.4956C18.114 25.6343 18.2257 25.7995 18.302 25.9816C18.3784 26.1638 18.4179 26.3592 18.4183 26.5567C18.4187 26.7541 18.38 26.9497 18.3045 27.1322C18.2289 27.3146 18.1179 27.4803 17.978 27.6196L13.733 31.8646C13.4522 32.1443 13.0722 32.3015 12.676 32.3019C12.2797 32.3023 11.8993 32.1459 11.618 31.8668ZM14.798 35.0468C14.6575 34.9081 14.5458 34.7429 14.4695 34.5608C14.3931 34.3787 14.3536 34.1833 14.3532 33.9858C14.3528 33.7883 14.3915 33.5927 14.467 33.4103C14.5426 33.2278 14.6536 33.0622 14.7935 32.9228L20.096 27.6203C20.2356 27.4809 20.4014 27.3705 20.5838 27.2952C20.7662 27.22 20.9616 27.1815 21.1589 27.1819C21.3562 27.1823 21.5515 27.2217 21.7336 27.2977C21.9157 27.3737 22.081 27.4849 22.22 27.6248C22.3608 27.7628 22.4725 27.9275 22.5487 28.1093C22.6248 28.291 22.6638 28.4862 22.6634 28.6833C22.663 28.8804 22.6231 29.0754 22.5462 29.2568C22.4693 29.4383 22.3568 29.6025 22.2155 29.7398L16.913 35.0423C16.6325 35.3223 16.2527 35.4799 15.8564 35.4808C15.4601 35.4816 15.0796 35.3256 14.798 35.0468ZM20.1005 38.2223C19.8155 38.4964 19.4356 38.6499 19.0401 38.6507C18.6447 38.6516 18.2642 38.4997 17.978 38.2268C17.8375 38.0881 17.7258 37.9229 17.6495 37.7408C17.5731 37.5587 17.5336 37.3633 17.5332 37.1658C17.5328 36.9683 17.5715 36.7727 17.647 36.5903C17.7226 36.4078 17.8336 36.2422 17.9735 36.1028L22.2185 31.8578C22.4989 31.5779 22.8788 31.4202 23.2751 31.4194C23.6713 31.4186 24.0519 31.5746 24.3335 31.8533C24.474 31.9928 24.5857 32.1586 24.662 32.3412C24.7383 32.5239 24.7778 32.7198 24.7783 32.9178C24.7787 33.1158 24.74 33.3119 24.6644 33.4948C24.5889 33.6778 24.478 33.8441 24.338 33.9841L20.1005 38.2223ZM23.8152 40.8751C23.5321 41.1559 23.1494 41.3134 22.7506 41.3134C22.3518 41.3134 21.9692 41.1559 21.686 40.8751C21.5464 40.7361 21.4357 40.571 21.3602 40.3891C21.2846 40.2073 21.2457 40.0123 21.2457 39.8153C21.2457 39.6184 21.2846 39.4234 21.3602 39.2416C21.4357 39.0597 21.5464 38.8945 21.686 38.7556L24.875 35.5666C25.156 35.2877 25.5358 35.1311 25.9317 35.1311C26.3277 35.1311 26.7075 35.2877 26.9885 35.5666C27.2725 35.8514 27.4323 36.2369 27.4332 36.6391C27.433 36.8771 27.3732 37.1112 27.2592 37.3201C27.2472 37.3441 27.236 37.3673 27.2262 37.3913C27.1631 37.5042 27.0846 37.6077 26.993 37.6988L23.8152 40.8751ZM28.2402 41.1698C27.9519 41.4433 27.569 41.5947 27.1716 41.5923C26.7742 41.5899 26.3931 41.434 26.108 41.1571L25.8762 40.9373L27.9995 38.8141L28.2567 39.0698C28.3938 39.2087 28.5021 39.3732 28.5755 39.5539C28.6489 39.7347 28.6859 39.9282 28.6843 40.1233C28.6828 40.3184 28.6428 40.5112 28.5666 40.6908C28.4904 40.8704 28.3795 41.0332 28.2402 41.1698ZM39.38 33.2153C39.0948 33.4898 38.7146 33.6434 38.3187 33.6441C37.9229 33.6448 37.5422 33.4925 37.256 33.2191L34.8935 30.8573C34.752 30.7207 34.5626 30.6451 34.3659 30.6468C34.1693 30.6485 33.9812 30.7274 33.8421 30.8665C33.7031 31.0055 33.6242 31.1936 33.6225 31.3903C33.6208 31.5869 33.6964 31.7764 33.833 31.9178L35.6645 33.7501C35.8051 33.8889 35.9166 34.0544 35.9924 34.2368C36.0683 34.4192 36.107 34.615 36.1063 34.8125C36.1056 35.0101 36.0655 35.2056 35.9884 35.3875C35.9112 35.5693 35.7986 35.734 35.657 35.8718C35.372 36.1438 34.9929 36.2952 34.599 36.2944C34.205 36.2936 33.8266 36.1406 33.5427 35.8673L33.0102 35.3348L31.7127 34.0373C31.5718 33.8968 31.3808 33.818 31.1818 33.8183C30.9828 33.8186 30.792 33.8979 30.6515 34.0388C30.511 34.1798 30.4322 34.3708 30.4325 34.5698C30.4327 34.7688 30.5121 34.9596 30.653 35.1001L31.9505 36.3976C32.0917 36.5375 32.2036 36.7042 32.2799 36.8878C32.3561 37.0714 32.3951 37.2683 32.3945 37.4671C32.3945 37.664 32.3552 37.859 32.2789 38.0405C32.2027 38.2221 32.0911 38.3867 31.9505 38.5246C31.6655 38.7981 31.2857 38.9507 30.8907 38.9507C30.4957 38.9507 30.116 38.7981 29.831 38.5246L28.781 37.4821C28.8739 37.2107 28.9245 36.9266 28.931 36.6398C28.9305 35.8422 28.6142 35.0772 28.0512 34.5121C27.5483 34.0126 26.8832 33.7095 26.1762 33.6578C26.278 33.263 26.298 32.8516 26.2348 32.4488C26.1716 32.046 26.0267 31.6604 25.8089 31.3157C25.5911 30.971 25.305 30.6745 24.9684 30.4445C24.6317 30.2146 24.2515 30.0559 23.8512 29.9783C24.1287 29.4209 24.2222 28.7898 24.1181 28.1759C24.0141 27.562 23.7179 26.9969 23.2722 26.5621C22.8325 26.1249 22.2679 25.835 21.6563 25.7326C21.0447 25.6302 20.4164 25.7204 19.8582 25.9906C19.7544 25.4565 19.5073 24.9607 19.1433 24.5562C18.7793 24.1518 18.3122 23.854 17.7919 23.6946C17.2717 23.5353 16.7179 23.5204 16.1898 23.6517C15.6618 23.7829 15.1794 24.0552 14.7942 24.4396L11.7942 27.4396L8.18225 23.9776L8.24825 23.9123L19.8597 12.3001L21.2982 13.6921L17.4507 17.5403C17.1708 17.8182 16.9484 18.1487 16.7966 18.5127C16.6447 18.8768 16.5662 19.2673 16.5658 19.6618C16.5653 20.0562 16.6427 20.4469 16.7937 20.8113C16.9447 21.1758 17.1662 21.5068 17.4455 21.7853C18.0172 22.3296 18.7764 22.6332 19.5657 22.6332C20.3551 22.6332 21.1143 22.3296 21.686 21.7853L25.1007 18.3706C25.2397 18.2319 25.4274 18.1531 25.6238 18.1513C25.8201 18.1495 26.0093 18.2247 26.1507 18.3608L39.3732 31.0906C39.5135 31.2295 39.6249 31.3947 39.7012 31.5768C39.7775 31.7589 39.8171 31.9542 39.8177 32.1516C39.8183 32.349 39.78 32.5445 39.7049 32.7271C39.6298 32.9096 39.5194 33.0755 39.38 33.2153ZM39.9402 24.7501L37.4922 27.1981L27.191 17.2801C26.7651 16.8745 26.198 16.6507 25.6099 16.6563C25.0218 16.6619 24.4591 16.8964 24.041 17.3101L20.6232 20.7248C20.337 20.9984 19.9561 21.1506 19.5602 21.1497C19.1643 21.1487 18.7841 20.9946 18.4992 20.7196C18.3607 20.5805 18.2509 20.4155 18.1761 20.2339C18.1014 20.0524 18.0631 19.8579 18.0635 19.6615C18.0639 19.4652 18.103 19.2709 18.1786 19.0896C18.2541 18.9084 18.3646 18.7439 18.5037 18.6053L22.5297 14.5793C22.6809 14.5726 22.8266 14.5203 22.9475 14.4293L28.3302 13.1431L39.9402 24.7501ZM42.0605 24.7501L28.2732 10.9591L31.4555 7.77684L45.2427 21.5656L42.0605 24.7501Z" fill="#E67A00"/>
<path d="M32.2486 12.7501C32.0497 12.75 31.859 12.671 31.7183 12.5303L30.9683 11.7803C30.8317 11.6389 30.7561 11.4494 30.7578 11.2528C30.7595 11.0561 30.8384 10.868 30.9775 10.7289C31.1165 10.5899 31.3046 10.511 31.5013 10.5093C31.6979 10.5076 31.8874 10.5832 32.0288 10.7198L32.7788 11.4698C32.8837 11.5747 32.9551 11.7083 32.984 11.8538C33.013 11.9993 32.9981 12.15 32.9414 12.2871C32.8846 12.4241 32.7885 12.5412 32.6652 12.6236C32.5419 12.706 32.3969 12.75 32.2486 12.7501Z" fill="#E67A00"/>
<path d="M15.7498 12.0001C15.6015 12 15.4566 11.956 15.3332 11.8736C15.2099 11.7912 15.1138 11.6741 15.0571 11.5371C15.0003 11.4 14.9855 11.2493 15.0144 11.1038C15.0433 10.9583 15.1147 10.8247 15.2196 10.7198L15.9696 9.96981C16.111 9.83319 16.3005 9.7576 16.4971 9.75931C16.6938 9.76101 16.8819 9.83989 17.021 9.97895C17.16 10.118 17.2389 10.3061 17.2406 10.5028C17.2423 10.6994 17.1667 10.8889 17.0301 11.0303L16.2801 11.7803C16.1395 11.921 15.9487 12 15.7498 12.0001Z" fill="#E67A00"/>
</svg>
