<svg width="48" height="48" viewBox="0 0 48 48" fill="none" xmlns="http://www.w3.org/2000/svg">
<path d="M41.0325 9.2175L33.5325 1.7175C33.3895 1.57935 33.1988 1.50148 33 1.5H7.5C7.30109 1.5 7.11032 1.57902 6.96967 1.71967C6.82902 1.86032 6.75 2.05109 6.75 2.25V29.25H3.75C3.55109 29.25 3.36032 29.329 3.21967 29.4697C3.07902 29.6103 3 29.8011 3 30V42.75C3 42.9489 3.07902 43.1397 3.21967 43.2803C3.36032 43.421 3.55109 43.5 3.75 43.5H6.75V45.75C6.75 45.9489 6.82902 46.1397 6.96967 46.2803C7.11032 46.421 7.30109 46.5 7.5 46.5H40.5C40.6989 46.5 40.8897 46.421 41.0303 46.2803C41.171 46.1397 41.25 45.9489 41.25 45.75V9.75C41.2485 9.55117 41.1706 9.36051 41.0325 9.2175ZM33.75 4.0575L38.6925 9H34.5C34.3011 9 34.1103 8.92098 33.9697 8.78033C33.829 8.63968 33.75 8.44891 33.75 8.25V4.0575ZM4.5 42V30.75H9V42H4.5ZM39.75 45H8.25V43.5H9.75C9.94891 43.5 10.1397 43.421 10.2803 43.2803C10.421 43.1397 10.5 42.9489 10.5 42.75V42.5325C11.816 43.1708 13.2599 43.5017 14.7225 43.5H23.25C23.643 43.5009 24.0294 43.3986 24.3705 43.2033C24.7116 43.008 24.9954 42.7265 25.1936 42.3871C25.3918 42.0477 25.4974 41.6622 25.4998 41.2692C25.5023 40.8761 25.4015 40.4893 25.2075 40.1475C25.3438 40.0625 25.4696 39.9618 25.5825 39.8475C25.7947 39.6392 25.9631 39.3906 26.0777 39.1162C26.1924 38.8419 26.251 38.5473 26.25 38.25C26.2511 37.8632 26.1502 37.4829 25.9575 37.1475C26.0938 37.0625 26.2196 36.9618 26.3325 36.8475C26.5447 36.6392 26.7131 36.3906 26.8277 36.1162C26.9424 35.8419 27.001 35.5473 27 35.25C27.0011 34.8632 26.9002 34.4829 26.7075 34.1475C26.8438 34.0625 26.9696 33.9618 27.0825 33.8475C27.3168 33.6151 27.4974 33.3342 27.6114 33.0245C27.7255 32.7148 27.7702 32.3839 27.7425 32.055C27.6804 31.4845 27.4076 30.9577 26.9776 30.5776C26.5476 30.1976 25.9913 29.9916 25.4175 30H18.75V26.25C18.7482 25.6538 18.5106 25.0825 18.089 24.661C17.6675 24.2394 17.0962 24.0018 16.5 24H15C14.8011 24 14.6103 24.079 14.4697 24.2197C14.329 24.3603 14.25 24.5511 14.25 24.75V27C14.25 27.4925 14.153 27.9801 13.9645 28.4351C13.7761 28.89 13.4999 29.3034 13.1517 29.6516C12.8034 29.9999 12.39 30.2761 11.9351 30.4645C11.4801 30.653 10.9925 30.75 10.5 30.75V30C10.5 29.8011 10.421 29.6103 10.2803 29.4697C10.1397 29.329 9.94891 29.25 9.75 29.25H8.25V3H32.25V8.25C32.2518 8.84619 32.4894 9.41745 32.911 9.83902C33.3325 10.2606 33.9038 10.4982 34.5 10.5H39.75V45ZM18 31.5H25.4175C25.6153 31.494 25.8086 31.5598 25.9616 31.6853C26.1147 31.8107 26.2171 31.9874 26.25 32.1825C26.259 32.2936 26.2428 32.4052 26.2025 32.5091C26.1622 32.613 26.099 32.7065 26.0175 32.7825C25.9511 32.8527 25.8707 32.9083 25.7817 32.9457C25.6926 32.9832 25.5966 33.0017 25.5 33H24.75C24.5511 33 24.3603 33.079 24.2197 33.2197C24.079 33.3603 24 33.5511 24 33.75C24 33.9489 24.079 34.1397 24.2197 34.2803C24.3603 34.421 24.5511 34.5 24.75 34.5C24.9489 34.5 25.1397 34.579 25.2803 34.7197C25.421 34.8603 25.5 35.0511 25.5 35.25C25.5009 35.3501 25.4806 35.4493 25.4406 35.5411C25.4005 35.6328 25.3415 35.7151 25.2675 35.7825C25.2011 35.8527 25.1207 35.9083 25.0317 35.9457C24.9426 35.9832 24.8466 36.0017 24.75 36H24C23.8011 36 23.6103 36.079 23.4697 36.2197C23.329 36.3603 23.25 36.5511 23.25 36.75C23.25 36.9489 23.329 37.1397 23.4697 37.2803C23.6103 37.421 23.8011 37.5 24 37.5C24.1989 37.5 24.3897 37.579 24.5303 37.7197C24.671 37.8603 24.75 38.0511 24.75 38.25C24.7509 38.3501 24.7306 38.4493 24.6906 38.5411C24.6505 38.6328 24.5915 38.7151 24.5175 38.7825C24.4511 38.8527 24.3707 38.9083 24.2817 38.9457C24.1926 38.9832 24.0966 39.0017 24 39H23.25C23.0511 39 22.8603 39.079 22.7197 39.2197C22.579 39.3603 22.5 39.5511 22.5 39.75C22.5 39.9489 22.579 40.1397 22.7197 40.2803C22.8603 40.421 23.0511 40.5 23.25 40.5C23.4489 40.5 23.6397 40.579 23.7803 40.7197C23.921 40.8603 24 41.0511 24 41.25C24.0009 41.3501 23.9806 41.4493 23.9406 41.5411C23.9005 41.6328 23.8415 41.7151 23.7675 41.7825C23.7011 41.8527 23.6207 41.9083 23.5317 41.9457C23.4426 41.9832 23.3466 42.0017 23.25 42H14.7225C13.2356 42.0025 11.7761 41.6006 10.5 40.8375V32.25C11.8919 32.2484 13.2263 31.6948 14.2106 30.7106C15.1948 29.7263 15.7484 28.3919 15.75 27V25.5H16.5C16.6989 25.5 16.8897 25.579 17.0303 25.7197C17.171 25.8603 17.25 26.0511 17.25 26.25V30.75C17.25 30.9489 17.329 31.1397 17.4697 31.2803C17.6103 31.421 17.8011 31.5 18 31.5Z" fill="#E67A00"/>
<path d="M18 7.5H30C30.1989 7.5 30.3897 7.42098 30.5303 7.28033C30.671 7.13968 30.75 6.94891 30.75 6.75C30.75 6.55109 30.671 6.36032 30.5303 6.21967C30.3897 6.07902 30.1989 6 30 6H18C17.8011 6 17.6103 6.07902 17.4697 6.21967C17.329 6.36032 17.25 6.55109 17.25 6.75C17.25 6.94891 17.329 7.13968 17.4697 7.28033C17.6103 7.42098 17.8011 7.5 18 7.5Z" fill="#E67A00"/>
<path d="M37.5 39H28.5C28.3011 39 28.1103 39.079 27.9697 39.2197C27.829 39.3603 27.75 39.5511 27.75 39.75C27.75 39.9489 27.829 40.1397 27.9697 40.2803C28.1103 40.421 28.3011 40.5 28.5 40.5H37.5C37.6989 40.5 37.8897 40.421 38.0303 40.2803C38.171 40.1397 38.25 39.9489 38.25 39.75C38.25 39.5511 38.171 39.3603 38.0303 39.2197C37.8897 39.079 37.6989 39 37.5 39Z" fill="#E67A00"/>
<path d="M36 24H21C20.8011 24 20.6103 24.079 20.4697 24.2197C20.329 24.3603 20.25 24.5511 20.25 24.75C20.25 24.9489 20.329 25.1397 20.4697 25.2803C20.6103 25.421 20.8011 25.5 21 25.5H36C36.1989 25.5 36.3897 25.421 36.5303 25.2803C36.671 25.1397 36.75 24.9489 36.75 24.75C36.75 24.5511 36.671 24.3603 36.5303 24.2197C36.3897 24.079 36.1989 24 36 24Z" fill="#E67A00"/>
<path d="M36.75 27.75C36.75 27.5511 36.671 27.3603 36.5303 27.2197C36.3897 27.079 36.1989 27 36 27H21C20.8011 27 20.6103 27.079 20.4697 27.2197C20.329 27.3603 20.25 27.5511 20.25 27.75C20.25 27.9489 20.329 28.1397 20.4697 28.2803C20.6103 28.421 20.8011 28.5 21 28.5H36C36.1989 28.5 36.3897 28.421 36.5303 28.2803C36.671 28.1397 36.75 27.9489 36.75 27.75Z" fill="#E67A00"/>
<path d="M12 13.5H36C36.1989 13.5 36.3897 13.421 36.5303 13.2803C36.671 13.1397 36.75 12.9489 36.75 12.75C36.75 12.5511 36.671 12.3603 36.5303 12.2197C36.3897 12.079 36.1989 12 36 12H12C11.8011 12 11.6103 12.079 11.4697 12.2197C11.329 12.3603 11.25 12.5511 11.25 12.75C11.25 12.9489 11.329 13.1397 11.4697 13.2803C11.6103 13.421 11.8011 13.5 12 13.5Z" fill="#E67A00"/>
<path d="M12 16.5H36C36.1989 16.5 36.3897 16.421 36.5303 16.2803C36.671 16.1397 36.75 15.9489 36.75 15.75C36.75 15.5511 36.671 15.3603 36.5303 15.2197C36.3897 15.079 36.1989 15 36 15H12C11.8011 15 11.6103 15.079 11.4697 15.2197C11.329 15.3603 11.25 15.5511 11.25 15.75C11.25 15.9489 11.329 16.1397 11.4697 16.2803C11.6103 16.421 11.8011 16.5 12 16.5Z" fill="#E67A00"/>
<path d="M12 19.5H36C36.1989 19.5 36.3897 19.421 36.5303 19.2803C36.671 19.1397 36.75 18.9489 36.75 18.75C36.75 18.5511 36.671 18.3603 36.5303 18.2197C36.3897 18.079 36.1989 18 36 18H12C11.8011 18 11.6103 18.079 11.4697 18.2197C11.329 18.3603 11.25 18.5511 11.25 18.75C11.25 18.9489 11.329 19.1397 11.4697 19.2803C11.6103 19.421 11.8011 19.5 12 19.5Z" fill="#E67A00"/>
<path d="M36.75 21.75C36.75 21.5511 36.671 21.3603 36.5303 21.2197C36.3897 21.079 36.1989 21 36 21H12C11.8011 21 11.6103 21.079 11.4697 21.2197C11.329 21.3603 11.25 21.5511 11.25 21.75C11.25 21.9489 11.329 22.1397 11.4697 22.2803C11.6103 22.421 11.8011 22.5 12 22.5H36C36.1989 22.5 36.3897 22.421 36.5303 22.2803C36.671 22.1397 36.75 21.9489 36.75 21.75Z" fill="#E67A00"/>
<path d="M37.4992 36.75H37.0597L35.7794 35.4697C35.6954 35.3859 35.5926 35.3233 35.4797 35.2869C35.3667 35.2506 35.2467 35.2415 35.1296 35.2606C35.0124 35.2796 34.9015 35.3262 34.8058 35.3964C34.7102 35.4667 34.6326 35.5586 34.5794 35.6647L34.0357 36.75H33.2857C33.5882 36.3569 33.7513 35.8743 33.7492 35.3782V35.187C33.749 34.7088 33.5921 34.2439 33.3026 33.8634C33.013 33.4828 32.6067 33.2077 32.1459 33.0801C31.6851 32.9524 31.1951 32.9794 30.7511 33.1567C30.307 33.334 29.9333 33.652 29.6872 34.062L27.8564 37.1137C27.8036 37.1982 27.7681 37.2923 27.752 37.3907C27.7359 37.489 27.7396 37.5895 27.7628 37.6864C27.7861 37.7833 27.8284 37.8746 27.8873 37.9549C27.9462 38.0353 28.0205 38.1031 28.1059 38.1544C28.1913 38.2058 28.286 38.2395 28.3846 38.2538C28.4832 38.2681 28.5837 38.2626 28.6802 38.2376C28.7766 38.2127 28.8671 38.1687 28.9464 38.1084C29.0257 38.0481 29.0921 37.9725 29.1419 37.8862L30.9742 34.833C31.0517 34.7046 31.1691 34.6052 31.3085 34.5498C31.4478 34.4944 31.6015 34.4862 31.746 34.5263C31.8904 34.5664 32.0178 34.6527 32.1087 34.772C32.1996 34.8913 32.2489 35.037 32.2492 35.187V35.3782C32.2492 35.4768 32.2299 35.5745 32.1922 35.6656C32.1545 35.7567 32.0992 35.8395 32.0294 35.9092L30.9689 36.9697C30.8641 37.0746 30.7927 37.2082 30.7637 37.3537C30.7348 37.4992 30.7497 37.6499 30.8064 37.787C30.8632 37.924 30.9593 38.0411 31.0826 38.1235C31.2059 38.2059 31.3509 38.2499 31.4992 38.25H34.4992C34.6392 38.2507 34.7766 38.2123 34.8959 38.139C35.0152 38.0657 35.1116 37.9605 35.1742 37.8352L35.4584 37.266L36.2227 38.0302C36.3624 38.17 36.5516 38.2489 36.7492 38.25H37.4992C37.6981 38.25 37.8888 38.171 38.0295 38.0303C38.1702 37.8897 38.2492 37.6989 38.2492 37.5C38.2492 37.3011 38.1702 37.1103 38.0295 36.9696C37.8888 36.829 37.6981 36.75 37.4992 36.75Z" fill="#E67A00"/>
</svg>
