<svg width="40" height="40" viewBox="0 0 40 40" fill="none" xmlns="http://www.w3.org/2000/svg">
<path d="M25.6805 28.0468H0V29.8783H26.7826L25.6805 28.0468Z" fill="#F8AA2B"/>
<path d="M32.0977 28.0468L33.2003 29.8783H39.9988V28.0468H32.0977Z" fill="#F8AA2B"/>
<path d="M8.07422 31.7099V33.5413H28.9841V33.5339L27.886 31.7099H8.07422Z" fill="#F8AA2B"/>
<path d="M8.78355 26.2199L22.0179 4.23268L20.4451 3.28943L7.74519 24.3883H4.03516V26.2199H8.78355Z" fill="#F8AA2B"/>
<path d="M13.0656 26.2198L28.281 0.943252L26.7082 0L10.9258 26.2198H13.0656Z" fill="#F8AA2B"/>
<path d="M20.9648 16.6425L32.5778 35.9351L34.1506 34.9917L22.0354 14.8648L20.9648 16.6425Z" fill="#F8AA2B"/>
<path d="M20.9678 20.2067L19.8973 18.4283L15.207 26.2198H17.3481L20.9678 20.2067Z" fill="#F8AA2B"/>
<path d="M27.2733 9.73238L25.6999 8.78845L23.1094 13.0921L31.0112 26.2197H36.6979V24.3882H32.0496L25.2504 13.0921L27.2733 9.73238Z" fill="#F8AA2B"/>
</svg>
