<svg width="48" height="48" viewBox="0 0 48 48" fill="none" xmlns="http://www.w3.org/2000/svg">
<path d="M15.75 27.75H42.75C43.7442 27.7488 44.6973 27.3533 45.4003 26.6503C46.1033 25.9473 46.4988 24.9942 46.5 24V10.5C46.4988 9.5058 46.1033 8.55267 45.4003 7.84966C44.6973 7.14666 43.7442 6.75119 42.75 6.75H15.75C14.7558 6.75119 13.8027 7.14666 13.0997 7.84966C12.3967 8.55267 12.0012 9.5058 12 10.5V24C12.0012 24.9942 12.3967 25.9473 13.0997 26.6503C13.8027 27.3533 14.7558 27.7488 15.75 27.75ZM42.75 26.25H15.75C15.1533 26.25 14.581 26.0129 14.159 25.591C13.7371 25.169 13.5 24.5967 13.5 24V15.75H45V24C45 24.5967 44.7629 25.169 44.341 25.591C43.919 26.0129 43.3467 26.25 42.75 26.25ZM13.5 12.75H45V14.25H13.5V12.75ZM15.75 8.25H42.75C43.3467 8.25 43.919 8.48705 44.341 8.90901C44.7629 9.33097 45 9.90326 45 10.5V11.25H13.5V10.5C13.5 9.90326 13.7371 9.33097 14.159 8.90901C14.581 8.48705 15.1533 8.25 15.75 8.25Z" fill="#E67A00"/>
<path d="M40.4994 18.75C39.8136 18.7511 39.149 18.9878 38.6169 19.4205C38.1767 19.0633 37.6444 18.8381 37.0815 18.7711C36.5186 18.704 35.9482 18.7978 35.4364 19.0416C34.9246 19.2854 34.4924 19.6692 34.1898 20.1485C33.8872 20.6279 33.7266 21.1831 33.7266 21.75C33.7266 22.3169 33.8872 22.8722 34.1898 23.3515C34.4924 23.8309 34.9246 24.2147 35.4364 24.4584C35.9482 24.7022 36.5186 24.796 37.0815 24.729C37.6444 24.6619 38.1767 24.4367 38.6169 24.0795C38.9901 24.3823 39.4305 24.591 39.9011 24.6881C40.3717 24.7852 40.8588 24.7679 41.3213 24.6375C41.7838 24.5071 42.2082 24.2675 42.5588 23.9389C42.9094 23.6103 43.1759 23.2023 43.336 22.7492C43.496 22.2961 43.5449 21.8112 43.4785 21.3353C43.412 20.8593 43.2322 20.4063 42.9542 20.0144C42.6762 19.6224 42.3081 19.303 41.8809 19.083C41.4538 18.8629 40.98 18.7488 40.4994 18.75ZM36.7494 23.25C36.4527 23.25 36.1627 23.162 35.9161 22.9972C35.6694 22.8324 35.4771 22.5981 35.3636 22.324C35.2501 22.05 35.2204 21.7484 35.2782 21.4574C35.3361 21.1664 35.479 20.8991 35.6888 20.6894C35.8985 20.4796 36.1658 20.3367 36.4568 20.2788C36.7478 20.221 37.0494 20.2507 37.3234 20.3642C37.5975 20.4777 37.8318 20.67 37.9966 20.9167C38.1614 21.1633 38.2494 21.4533 38.2494 21.75C38.2494 22.1478 38.0914 22.5294 37.8101 22.8107C37.5288 23.092 37.1472 23.25 36.7494 23.25ZM40.4994 23.25C40.1409 23.251 39.7944 23.1214 39.5244 22.8855C39.674 22.5256 39.7509 22.1397 39.7509 21.75C39.7509 21.3603 39.674 20.9744 39.5244 20.6145C39.7944 20.3786 40.1409 20.2491 40.4994 20.25C40.8972 20.25 41.2788 20.408 41.5601 20.6894C41.8414 20.9707 41.9994 21.3522 41.9994 21.75C41.9994 22.1478 41.8414 22.5294 41.5601 22.8107C41.2788 23.092 40.8972 23.25 40.4994 23.25Z" fill="#E67A00"/>
<path d="M27 23.25H17.25C17.0511 23.25 16.8603 23.329 16.7197 23.4697C16.579 23.6103 16.5 23.8011 16.5 24C16.5 24.1989 16.579 24.3897 16.7197 24.5303C16.8603 24.671 17.0511 24.75 17.25 24.75H27C27.1989 24.75 27.3897 24.671 27.5303 24.5303C27.671 24.3897 27.75 24.1989 27.75 24C27.75 23.8011 27.671 23.6103 27.5303 23.4697C27.3897 23.329 27.1989 23.25 27 23.25Z" fill="#E67A00"/>
<path d="M17.25 22.5H18C18.1989 22.5 18.3897 22.421 18.5303 22.2803C18.671 22.1397 18.75 21.9489 18.75 21.75C18.75 21.5511 18.671 21.3603 18.5303 21.2197C18.3897 21.079 18.1989 21 18 21H17.25C17.0511 21 16.8603 21.079 16.7197 21.2197C16.579 21.3603 16.5 21.5511 16.5 21.75C16.5 21.9489 16.579 22.1397 16.7197 22.2803C16.8603 22.421 17.0511 22.5 17.25 22.5Z" fill="#E67A00"/>
<path d="M20.25 22.5H21C21.1989 22.5 21.3897 22.421 21.5303 22.2803C21.671 22.1397 21.75 21.9489 21.75 21.75C21.75 21.5511 21.671 21.3603 21.5303 21.2197C21.3897 21.079 21.1989 21 21 21H20.25C20.0511 21 19.8603 21.079 19.7197 21.2197C19.579 21.3603 19.5 21.5511 19.5 21.75C19.5 21.9489 19.579 22.1397 19.7197 22.2803C19.8603 22.421 20.0511 22.5 20.25 22.5Z" fill="#E67A00"/>
<path d="M23.25 22.5H24C24.1989 22.5 24.3897 22.421 24.5303 22.2803C24.671 22.1397 24.75 21.9489 24.75 21.75C24.75 21.5511 24.671 21.3603 24.5303 21.2197C24.3897 21.079 24.1989 21 24 21H23.25C23.0511 21 22.8603 21.079 22.7197 21.2197C22.579 21.3603 22.5 21.5511 22.5 21.75C22.5 21.9489 22.579 22.1397 22.7197 22.2803C22.8603 22.421 23.0511 22.5 23.25 22.5Z" fill="#E67A00"/>
<path d="M27 21H26.25C26.0511 21 25.8603 21.079 25.7197 21.2197C25.579 21.3603 25.5 21.5511 25.5 21.75C25.5 21.9489 25.579 22.1397 25.7197 22.2803C25.8603 22.421 26.0511 22.5 26.25 22.5H27C27.1989 22.5 27.3897 22.421 27.5303 22.2803C27.671 22.1397 27.75 21.9489 27.75 21.75C27.75 21.5511 27.671 21.3603 27.5303 21.2197C27.3897 21.079 27.1989 21 27 21Z" fill="#E67A00"/>
<path d="M46.4137 30.6751C46.0137 29.9883 45.3583 29.4875 44.5905 29.2818C43.8228 29.0761 43.0048 29.1823 42.315 29.5771L33.75 34.5241C33.5557 34.1474 33.2846 33.8157 32.9541 33.5504C32.6237 33.285 32.2412 33.0919 31.8315 32.9836L21.6608 30.6488C19.7262 30.2024 17.7013 30.3595 15.8588 31.0988L11.5087 32.8396C11.2426 32.9461 10.9585 33.0006 10.6718 33.0001H10.5V31.5001C10.5 31.3012 10.421 31.1104 10.2803 30.9697C10.1397 30.8291 9.94891 30.7501 9.75 30.7501H2.25C2.05109 30.7501 1.86032 30.8291 1.71967 30.9697C1.57902 31.1104 1.5 31.3012 1.5 31.5001V45.7501C1.5 45.949 1.57902 46.1398 1.71967 46.2804C1.86032 46.4211 2.05109 46.5001 2.25 46.5001H9.75C9.94891 46.5001 10.1397 46.4211 10.2803 46.2804C10.421 46.1398 10.5 45.949 10.5 45.7501V45.0001H10.95C11.1245 45.0001 11.2995 45.0088 11.475 45.0263L24.1448 46.2931C24.3653 46.3151 24.5863 46.3261 24.8078 46.3261C26.0707 46.3254 27.3084 45.973 28.3822 45.3083L45.318 34.7731C46.0056 34.3739 46.5069 33.7185 46.7123 32.9504C46.9177 32.1823 46.8103 31.3642 46.4137 30.6751ZM9 45.0001H3V32.2501H9V45.0001ZM44.544 33.4883L27.5887 44.0348C26.6035 44.6436 25.4459 44.9126 24.2932 44.8006L11.625 43.5331C11.4 43.5111 11.175 43.5001 10.95 43.5001H10.5V34.5001H10.6718C11.1488 34.5002 11.6215 34.4094 12.0645 34.2323L16.4145 32.4916C17.9738 31.8654 19.6876 31.7324 21.3248 32.1106L31.467 34.4356C31.7522 34.5125 32.0084 34.6717 32.2038 34.8932C32.3991 35.1147 32.525 35.3888 32.5658 35.6813C32.5674 35.7065 32.5704 35.7315 32.5747 35.7563C32.5889 35.9287 32.5732 36.1023 32.5282 36.2693C32.4744 36.463 32.3825 36.644 32.2581 36.8019C32.1337 36.9598 31.9792 37.0914 31.8035 37.1891C31.6278 37.2868 31.4344 37.3486 31.2347 37.3709C31.0349 37.3933 30.8327 37.3757 30.6398 37.3193L23.3918 35.9093C23.1977 35.8742 22.9977 35.917 22.8349 36.0283C22.6721 36.1396 22.5598 36.3105 22.5221 36.5041C22.4844 36.6976 22.5245 36.8983 22.6336 37.0625C22.7428 37.2267 22.9122 37.3413 23.1052 37.3816L30.3053 38.7796C30.6858 38.8817 31.0828 38.9078 31.4734 38.8564C31.8641 38.8051 32.2408 38.6773 32.5821 38.4803C32.9234 38.2834 33.2225 38.0211 33.4624 37.7085C33.7023 37.3959 33.8783 37.0392 33.9802 36.6586C34.0328 36.4624 34.0655 36.2613 34.0778 36.0586L43.065 30.8671C43.2925 30.7357 43.5506 30.6664 43.8133 30.6661C44.076 30.6658 44.3342 30.7345 44.5621 30.8654C44.7899 30.9962 44.9794 31.1846 45.1115 31.4117C45.2436 31.6388 45.3138 31.8966 45.315 32.1593C45.3149 32.4291 45.2435 32.6941 45.1081 32.9275C44.9727 33.1608 44.7781 33.3543 44.544 33.4883Z" fill="#E67A00"/>
<path d="M6 33.75C5.80109 33.75 5.61032 33.829 5.46967 33.9697C5.32902 34.1103 5.25 34.3011 5.25 34.5V35.25C5.25 35.4489 5.32902 35.6397 5.46967 35.7803C5.61032 35.921 5.80109 36 6 36C6.19891 36 6.38968 35.921 6.53033 35.7803C6.67098 35.6397 6.75 35.4489 6.75 35.25V34.5C6.75 34.3011 6.67098 34.1103 6.53033 33.9697C6.38968 33.829 6.19891 33.75 6 33.75Z" fill="#E67A00"/>
</svg>
